<svg version="1.1" viewBox="0 0 674.16 262.02" xmlns="http://www.w3.org/2000/svg"><defs><clipPath id="gub-ae"><path transform="translate(-223.87,-368.05)" d="M 0,595.276 H 841.89 V 0 H 0 Z"/></clipPath><clipPath id="gub-h"><path transform="translate(-223.87,-347.27)" d="M 0,595.276 H 841.89 V 0 H 0 Z"/></clipPath><clipPath id="gub-s"><path transform="translate(-223.87,-326.87)" d="M 0,595.276 H 841.89 V 0 H 0 Z"/></clipPath><clipPath id="gub-ai"><path transform="translate(-223.87,-306.09)" d="M 0,595.276 H 841.89 V 0 H 0 Z"/></clipPath><clipPath id="gub-z"><path transform="translate(-223.87,-285.7)" d="M 0,595.276 H 841.89 V 0 H 0 Z"/></clipPath><clipPath id="gub-aa"><path transform="translate(-223.87,-264.92)" d="M 0,595.276 H 841.89 V 0 H 0 Z"/></clipPath><clipPath id="gub-ab"><path transform="translate(-223.87,-244.52)" d="M 0,595.276 H 841.89 V 0 H 0 Z"/></clipPath><clipPath id="gub-ac"><path d="M 0,595.276 H 841.89 V 0 H 0 Z"/></clipPath><clipPath id="gub-ad"><path transform="translate(-324.82,-252.87)" d="M 0,595.276 H 841.89 V 0 H 0 Z"/></clipPath><clipPath id="gub-af"><path transform="translate(-339.16,-252.92)" d="M 0,595.276 H 841.89 V 0 H 0 Z"/></clipPath><clipPath id="gub-ag"><path transform="translate(-377.66,-252.37)" d="M 0,595.276 H 841.89 V 0 H 0 Z"/></clipPath><clipPath id="gub-ah"><path transform="translate(-403.4,-257.77)" d="M 0,595.276 H 841.89 V 0 H 0 Z"/></clipPath><clipPath id="gub-a"><path transform="translate(-428.93,-254.18)" d="M 0,595.276 H 841.89 V 0 H 0 Z"/></clipPath><clipPath id="gub-b"><path transform="translate(-463.93,-249.08)" d="M 0,595.276 H 841.89 V 0 H 0 Z"/></clipPath><clipPath id="gub-c"><path transform="translate(-479.43,-249.52)" d="M 0,595.276 H 841.89 V 0 H 0 Z"/></clipPath><clipPath id="gub-d"><path transform="translate(-509.82,-257.77)" d="M 0,595.276 H 841.89 V 0 H 0 Z"/></clipPath><clipPath id="gub-e"><path transform="translate(-537,-252.5)" d="M 0,595.276 H 841.89 V 0 H 0 Z"/></clipPath><clipPath id="gub-f"><path transform="translate(-558.37,-249.52)" d="M 0,595.276 H 841.89 V 0 H 0 Z"/></clipPath><clipPath id="gub-g"><path transform="translate(-595.99,-264.42)" d="M 0,595.276 H 841.89 V 0 H 0 Z"/></clipPath><clipPath id="gub-i"><path transform="translate(-607.58,-252.92)" d="M 0,595.276 H 841.89 V 0 H 0 Z"/></clipPath><clipPath id="gub-j"><path transform="translate(-345.47,-363.77)" d="M 0,595.276 H 841.89 V 0 H 0 Z"/></clipPath><clipPath id="gub-k"><path transform="translate(-365.1,-360.95)" d="M 0,595.276 H 841.89 V 0 H 0 Z"/></clipPath><clipPath id="gub-l"><path transform="translate(-408.92,-360.82)" d="M 0,595.276 H 841.89 V 0 H 0 Z"/></clipPath><clipPath id="gub-m"><path transform="translate(-445.96,-360.82)" d="M 0,595.276 H 841.89 V 0 H 0 Z"/></clipPath><clipPath id="gub-n"><path transform="translate(-481.7,-362.93)" d="M 0,595.276 H 841.89 V 0 H 0 Z"/></clipPath><clipPath id="gub-o"><path transform="translate(-308.45,-317.15)" d="M 0,595.276 H 841.89 V 0 H 0 Z"/></clipPath><clipPath id="gub-p"><path transform="translate(-361.09,-317.15)" d="M 0,595.276 H 841.89 V 0 H 0 Z"/></clipPath><clipPath id="gub-q"><path transform="translate(-407.7,-281.38)" d="M 0,595.276 H 841.89 V 0 H 0 Z"/></clipPath><clipPath id="gub-r"><path transform="translate(-450.73,-317.15)" d="M 0,595.276 H 841.89 V 0 H 0 Z"/></clipPath><clipPath id="gub-t"><path transform="translate(-467.54,-315.04)" d="M 0,595.276 H 841.89 V 0 H 0 Z"/></clipPath><clipPath id="gub-u"><path transform="translate(-504.21,-315.17)" d="M 0,595.276 H 841.89 V 0 H 0 Z"/></clipPath><clipPath id="gub-v"><path transform="translate(-555.65,-317.99)" d="M 0,595.276 H 841.89 V 0 H 0 Z"/></clipPath><clipPath id="gub-w"><path transform="translate(-580.78,-281.38)" d="M 0,595.276 H 841.89 V 0 H 0 Z"/></clipPath><clipPath id="gub-x"><path transform="translate(-617.09,-317.15)" d="M 0,595.276 H 841.89 V 0 H 0 Z"/></clipPath><clipPath id="gub-y"><path transform="translate(-658.58,-317.15)" d="M 0,595.276 H 841.89 V 0 H 0 Z"/></clipPath></defs><g transform="translate(-203.95 -265.81)" fill="#037e44"><path transform="matrix(1.3333,0,0,-1.3333,298.5,302.97)" d="m0 0s26.632 26.012 70.914 27.87v-20.128s-36.231 2.477-70.914-28.49z" clip-path="url(#gub-ae)"/><path transform="matrix(1.3333,0,0,-1.3333,298.5,330.68)" d="m0 0s-26.632 26.012-70.914 27.87v-20.128s36.231 2.477 70.914-28.49z" clip-path="url(#gub-h)"/><path transform="matrix(1.3333,0,0,-1.3333,298.5,357.87)" d="m0 0s26.632 26.012 70.914 27.87v-20.128s-36.231 2.477-70.914-28.49z" clip-path="url(#gub-s)"/><path transform="matrix(1.3333,0,0,-1.3333,298.5,385.58)" d="m0 0s-26.632 26.012-70.914 27.87v-20.128s36.231 2.477 70.914-28.49z" clip-path="url(#gub-ai)"/><path transform="matrix(1.3333,0,0,-1.3333,298.5,412.77)" d="m0 0s26.632 26.012 70.914 27.87v-20.128s-36.231 2.477-70.914-28.49z" clip-path="url(#gub-z)"/><path transform="matrix(1.3333,0,0,-1.3333,298.5,440.48)" d="m0 0s-26.632 26.012-70.914 27.87v-20.128s36.231 2.477 70.914-28.49z" clip-path="url(#gub-aa)"/><path transform="matrix(1.3333,0,0,-1.3333,298.5,467.67)" d="m0 0s26.632 26.012 70.914 27.87v-20.128s-36.231 2.477-70.914-28.49z" clip-path="url(#gub-ab)"/><path transform="matrix(1.3333,0,0,-1.3333,0,793.7)" d="m226.54 199.41h-2.671v36.79h2.671z" clip-path="url(#gub-ac)"/><path transform="matrix(1.3333,0,0,-1.3333,433.1,456.54)" d="m0 0c1.189 1.764 1.785 4.188 1.785 7.276 0 3.098-0.596 5.529-1.785 7.292-1.19 1.764-2.831 2.646-4.923 2.646-2.082 0-3.719-0.882-4.908-2.646-1.19-1.763-1.785-4.194-1.785-7.292 0-3.088 0.595-5.512 1.785-7.276 1.189-1.764 2.826-2.646 4.908-2.646 2.092 0 3.733 0.882 4.923 2.646m-12.324-0.683c-1.928 2.073-2.892 4.726-2.892 7.959 0 3.235 0.964 5.89 2.892 7.968 1.928 2.077 4.395 3.116 7.401 3.116 3.015 0 5.487-1.039 7.415-3.116 1.928-2.078 2.893-4.733 2.893-7.968 0-3.233-0.965-5.886-2.893-7.959-1.928-2.072-4.4-3.108-7.415-3.108-3.006 0-5.473 1.036-7.401 3.108" clip-path="url(#gub-ad)"/><path transform="matrix(1.3333,0,0,-1.3333,452.22,456.47)" d="m0 0v14.475c0 1.14-0.174 1.886-0.523 2.237-0.349 0.35-1.098 0.536-2.246 0.558v0.612h16.724l0.045-2.34 0.062-2.339h-0.753c-0.175 1.424-0.575 2.356-1.201 2.795s-1.877 0.659-3.754 0.659h-4.015c-0.452 0-0.752-0.076-0.9-0.227-0.149-0.153-0.223-0.458-0.223-0.919v-7.096h4.277c1.395 0 2.328 0.193 2.8 0.581 0.472 0.387 0.785 1.214 0.938 2.481h0.724v-7.442h-0.724c-0.153 1.266-0.466 2.093-0.938 2.481-0.472 0.386-1.405 0.581-2.8 0.581h-4.277v-7.097c0-1.141 0.192-1.887 0.576-2.237 0.385-0.351 1.208-0.536 2.47-0.557v-0.612h-9.031v0.612c1.148 0.021 1.897 0.209 2.246 0.565 0.349 0.345 0.523 1.088 0.523 2.229" clip-path="url(#gub-af)"/><path transform="matrix(1.3333,0,0,-1.3333,503.55,457.2)" d="m0 0c0-0.66 0.095-1.103 0.285-1.327 0.189-0.225 0.571-0.348 1.146-0.369l0.554-0.016c2.123 0 3.702 0.382 4.738 1.147 1.036 0.763 1.554 1.935 1.554 3.516 0 1.58-0.559 2.752-1.677 3.517-1.118 0.763-2.826 1.145-5.123 1.145h-1.477zm0 15.871v-7.001h2.846c1.6 0 2.79 0.329 3.57 0.988 0.779 0.66 1.169 1.67 1.169 3.031 0 1.475-0.475 2.572-1.423 3.289-0.949 0.717-2.403 1.075-4.362 1.075l-0.692-0.031c-0.441-0.022-0.739-0.12-0.893-0.299-0.143-0.178-0.215-0.528-0.215-1.052m-3.215-15.322v14.474c0 1.141-0.193 1.887-0.577 2.238-0.385 0.35-1.208 0.536-2.47 0.557v0.613h8.816c2.738 0 4.8-0.44 6.185-1.32 1.385-0.879 2.077-2.192 2.077-3.94 0-1.675-0.565-2.936-1.692-3.783-0.667-0.502-1.544-0.854-2.631-1.052 1.261-0.251 2.302-0.634 3.123-1.147 1.508-0.962 2.261-2.396 2.261-4.3 0-1.906-0.715-3.339-2.146-4.302s-3.562-1.444-6.393-1.444h-9.6v0.612c1.262 0.02 2.087 0.209 2.477 0.564 0.38 0.346 0.57 1.089 0.57 2.23" clip-path="url(#gub-ag)"/><path transform="matrix(1.3333,0,0,-1.3333,537.87,450)" d="m0 0h7.209l-3.617 8.775zm-3.47-4.852 7.646 18.259h0.616l7.769-18.259c0.513-1.14 0.951-1.888 1.315-2.245 0.365-0.355 0.885-0.539 1.562-0.549v-0.612h-8.061v0.612c1.251 0.021 1.993 0.207 2.223 0.557 0.231 0.351 0.105 1.097-0.377 2.237l-1.453 3.533h-8.339l-0.945-2.417c-0.646-1.602-0.875-2.649-0.685-3.141 0.19-0.491 0.926-0.748 2.208-0.769v-0.612h-6.325v0.612c0.666 0.01 1.179 0.194 1.538 0.549 0.359 0.357 0.795 1.105 1.308 2.245" clip-path="url(#gub-ah)"/><path transform="matrix(1.3333,0,0,-1.3333,571.91,454.79)" d="m0 0c0-1.654 0.192-2.738 0.577-3.251 0.385-0.514 1.207-0.78 2.469-0.801v-0.612h-7.477v0.612c1.261 0.021 2.084 0.287 2.469 0.801 0.385 0.513 0.577 1.596 0.577 3.249v14.412c-0.441 0.492-0.815 0.843-1.123 1.052-0.523 0.355-1.175 0.539-1.954 0.55v0.612h5.508l11.985-15.334v10.672c0 1.642-0.192 2.724-0.577 3.241-0.385 0.518-1.208 0.787-2.469 0.809v0.612h7.477v-0.612c-1.262-0.022-2.085-0.288-2.469-0.801-0.385-0.513-0.577-1.597-0.577-3.25v-16.971h-0.492l-13.924 17.811z" clip-path="url(#gub-a)"/><path transform="matrix(1.3333,0,0,-1.3333,618.57,461.6)" d="m0 0c-3.457 0-6.212 0.999-8.264 2.998-2.051 1.999-3.077 4.689-3.077 8.069 0 3.235 1.008 5.89 3.024 7.968 2.015 2.077 4.588 3.116 7.716 3.116 1.518 0 3.205-0.314 5.062-0.942 0.523-0.178 0.982-0.183 1.377-0.016 0.395 0.168 0.649 0.466 0.762 0.896l0.015 0.062h0.583l0.308-6.813h-0.723c-0.503 1.758-1.351 3.121-2.547 4.09-1.194 0.968-2.632 1.452-4.314 1.452-2.369 0-4.234-0.874-5.592-2.622s-2.038-4.151-2.038-7.206c0-3.046 0.721-5.44 2.162-7.183 1.441-1.742 3.418-2.613 5.931-2.613 1.292 0.01 2.471 0.251 3.538 0.722 0.298 0.135 0.506 0.303 0.623 0.502 0.118 0.199 0.178 0.481 0.178 0.848v5.086c0 1.141-0.175 1.887-0.524 2.237-0.348 0.351-1.087 0.537-2.215 0.558v0.612h8.003v-0.612c-0.903-0.011-1.494-0.194-1.771-0.55-0.277-0.355-0.415-1.104-0.415-2.245v-6.279c-2.555-1.413-5.156-2.125-7.802-2.135" clip-path="url(#gub-b)"/><path transform="matrix(1.3333,0,0,-1.3333,639.25,461.01)" d="m0 0v0.612c1.148 0.021 1.897 0.206 2.246 0.557s0.524 1.097 0.524 2.237v14.475c0 1.14-0.175 1.887-0.524 2.237-0.349 0.351-1.098 0.536-2.246 0.558v0.612h9.031v-0.612c-1.261-0.022-2.085-0.207-2.469-0.558-0.385-0.35-0.578-1.097-0.578-2.237v-15.181c0-0.587 0.098-0.978 0.293-1.178 0.195-0.199 0.579-0.297 1.154-0.297h2.184c2.555 0 4.339 0.277 5.355 0.832 1.015 0.554 1.902 1.731 2.661 3.532h0.815l-0.691-2.795-0.708-2.794h-11.063z" clip-path="url(#gub-c)"/><path transform="matrix(1.3333,0,0,-1.3333,679.76,450)" d="m0 0h7.209l-3.617 8.775h-1e-3zm-3.471-4.852 7.647 18.259h0.615l7.77-18.259c0.512-1.14 0.951-1.888 1.315-2.245 0.364-0.355 0.885-0.539 1.562-0.549v-0.612h-8.061v0.612c1.251 0.021 1.992 0.207 2.223 0.557 0.23 0.351 0.105 1.097-0.377 2.237l-1.453 3.533h-8.339l-0.946-2.417c-0.646-1.602-0.875-2.649-0.684-3.141 0.189-0.491 0.926-0.748 2.208-0.769v-0.612h-6.326v0.612c0.667 0.01 1.179 0.194 1.539 0.549 0.358 0.357 0.795 1.105 1.307 2.245" clip-path="url(#gub-d)"/><path transform="matrix(1.3333,0,0,-1.3333,716,457.04)" d="m0 0c0-0.648 0.095-1.089 0.285-1.318 0.19-0.231 0.567-0.367 1.131-0.409l1.03-0.079c2.934 0 5.2 0.825 6.801 2.473 1.6 1.648 2.4 3.975 2.4 6.979 0 3.014-0.851 5.348-2.554 7.001-1.702 1.654-4.114 2.481-7.231 2.481l-0.769-0.031c-0.442-0.011-0.734-0.108-0.877-0.29-0.144-0.184-0.216-0.548-0.216-1.092zm-3.215 0.424v14.474c0 1.141-0.175 1.887-0.523 2.238-0.349 0.35-1.098 0.536-2.246 0.557v0.613h8.061c4.236 0 7.465-0.911 9.686-2.732 2.219-1.821 3.331-4.465 3.331-7.928 0-3.318-1.104-5.918-3.309-7.803-2.205-1.884-5.251-2.825-9.139-2.825h-8.63v0.612c1.148 0.02 1.897 0.209 2.246 0.564 0.348 0.346 0.523 1.089 0.523 2.23" clip-path="url(#gub-e)"/><path transform="matrix(1.3333,0,0,-1.3333,744.49,461.01)" d="m0 0v0.612c1.148 0.021 1.897 0.206 2.246 0.557s0.524 1.097 0.524 2.237v14.475c0 1.14-0.175 1.887-0.524 2.237-0.349 0.351-1.098 0.536-2.246 0.558v0.612h16.724l0.046-2.34 0.061-2.339h-0.754c-0.174 1.424-0.574 2.356-1.2 2.795-0.625 0.44-1.877 0.659-3.754 0.659h-4.016c-0.451 0-0.751-0.076-0.899-0.227-0.149-0.152-0.224-0.458-0.224-0.919v-7.096h4.539c1.395 0 2.329 0.194 2.8 0.581 0.472 0.387 0.785 1.214 0.939 2.481h0.723v-7.442h-0.723c-0.154 1.266-0.467 2.093-0.939 2.481-0.471 0.387-1.405 0.581-2.8 0.581h-4.539v-7.803c0-0.587 0.098-0.978 0.293-1.178 0.195-0.199 0.579-0.297 1.154-0.297h2.969c2.216 0 3.778 0.266 4.685 0.8 0.908 0.534 1.73 1.669 2.47 3.407h0.861l-0.692-2.716-0.708-2.716h-11.032z" clip-path="url(#gub-f)"/><path transform="matrix(1.3333,0,0,-1.3333,794.65,441.15)" d="m0 0c-0.349 1.611-1.077 2.936-2.185 3.972-1.107 1.036-2.348 1.554-3.723 1.554-0.934 0-1.697-0.283-2.292-0.848s-0.893-1.287-0.893-2.166c0-0.859 0.278-1.607 0.831-2.245 0.554-0.639 1.585-1.398 3.093-2.277 2.584-1.507 4.333-2.778 5.246-3.814 0.913-1.027 1.369-2.24 1.369-3.643 0-1.717-0.623-3.124-1.869-4.222-1.246-1.1-2.839-1.649-4.777-1.649-1.251 0-2.642 0.314-4.169 0.942-0.462 0.188-0.852 0.211-1.17 0.071-0.317-0.142-0.492-0.416-0.523-0.824l-0.015-0.189h-0.677l-0.954 6.829h0.723c0.646-1.852 1.525-3.263 2.638-4.231 1.114-0.968 2.403-1.452 3.869-1.452 1.088 0 1.98 0.335 2.678 1.004 0.697 0.67 1.046 1.534 1.046 2.591 0 1.026-0.333 1.92-1 2.685-0.656 0.764-1.888 1.669-3.692 2.716-2.093 1.214-3.508 2.276-4.246 3.186-0.739 0.911-1.109 2.041-1.109 3.392 0 1.59 0.531 2.893 1.593 3.908 1.062 1.016 2.423 1.523 4.085 1.523 1.005 0 2.189-0.292 3.554-0.878 0.512-0.22 0.935-0.27 1.269-0.15 0.333 0.12 0.556 0.401 0.669 0.84l0.046 0.188h0.662l0.738-6.813z" clip-path="url(#gub-g)"/><path transform="matrix(1.3333,0,0,-1.3333,810.1,456.47)" d="m0 0v14.475c0 1.14-0.174 1.886-0.522 2.237-0.35 0.35-1.098 0.536-2.248 0.558v0.612h9.032v-0.612c-1.262-0.022-2.084-0.208-2.469-0.558-0.385-0.351-0.577-1.097-0.577-2.237v-6.374h9.554v6.374c0 1.14-0.193 1.886-0.577 2.237-0.384 0.35-1.208 0.536-2.469 0.558v0.612h9.031v-0.612c-1.15-0.022-1.898-0.208-2.246-0.558-0.349-0.351-0.524-1.097-0.524-2.237v-14.475c0-1.141 0.175-1.887 0.524-2.237 0.348-0.351 1.096-0.536 2.246-0.557v-0.612h-9.031v0.612c1.261 0.021 2.085 0.206 2.469 0.557 0.384 0.35 0.577 1.096 0.577 2.237v6.782h-9.554v-6.782c0-1.141 0.192-1.887 0.577-2.237 0.385-0.351 1.207-0.536 2.469-0.557v-0.612h-9.032v0.612c1.15 0.021 1.898 0.209 2.248 0.565 0.348 0.345 0.522 1.088 0.522 2.229" clip-path="url(#gub-i)"/><path transform="matrix(1.3333,0,0,-1.3333,460.62,308.67)" d="m0 0v-12.962h-1.003c-1.211 3.544-3.028 6.237-5.451 8.081-2.422 1.844-5.07 2.766-7.945 2.766-2.748 0-5.035-0.773-6.86-2.319-1.826-1.545-3.119-3.701-3.878-6.467s-1.139-5.604-1.139-8.515c0-3.524 0.416-6.616 1.247-9.273 0.832-2.658 2.174-4.61 4.027-5.858 1.853-1.247 4.054-1.87 6.603-1.87 0.886 0 1.794 0.094 2.725 0.284s1.885 0.465 2.861 0.827v7.647c0 1.446-0.1 2.382-0.298 2.806-0.199 0.425-0.61 0.81-1.234 1.153s-1.379 0.515-2.264 0.515h-0.949v1.004h17.87v-1.004c-1.356-0.09-2.301-0.275-2.834-0.556-0.534-0.28-0.945-0.745-1.234-1.396-0.162-0.344-0.244-1.184-0.244-2.522v-7.647c-2.35-1.048-4.795-1.84-7.335-2.373-2.54-0.532-5.175-0.8-7.905-0.8-3.489 0-6.385 0.475-8.691 1.424-2.304 0.949-4.338 2.197-6.101 3.742-1.762 1.546-3.141 3.286-4.135 5.22-1.266 2.495-1.898 5.288-1.898 8.379 0 5.532 1.943 10.205 5.83 14.02 3.886 3.814 8.777 5.721 14.67 5.721 1.826 0 3.471-0.145 4.935-0.434 0.796-0.144 2.084-0.555 3.864-1.234 1.781-0.677 2.834-1.016 3.16-1.016 0.505 0 0.976 0.185 1.41 0.555 0.433 0.371 0.831 1.072 1.193 2.102z" clip-path="url(#gub-j)"/><path transform="matrix(1.3333,0,0,-1.3333,486.8,312.43)" d="m0 0v-16.107h1.546c2.512 0 4.392 0.23 5.64 0.691s2.228 1.292 2.942 2.495c0.714 1.202 1.071 2.77 1.071 4.704 0 2.802-0.655 4.872-1.966 6.21s-3.421 2.007-6.332 2.007zm0-18.033v-10.304c0-1.989 0.122-3.241 0.366-3.756s0.674-0.927 1.288-1.234c0.615-0.307 1.763-0.461 3.444-0.461v-1.003h-18.819v1.003c1.699 0 2.851 0.158 3.457 0.475 0.606 0.316 1.031 0.728 1.275 1.234s0.366 1.753 0.366 3.742v23.862c0 1.989-0.122 3.241-0.366 3.756s-0.674 0.927-1.288 1.234c-0.615 0.307-1.763 0.461-3.444 0.461v1.003h17.084c4.447 0 7.701-0.307 9.762-0.921 2.061-0.616 3.742-1.749 5.043-3.404 1.302-1.654 1.953-3.593 1.953-5.816 0-2.712-0.976-4.954-2.929-6.725-1.247-1.121-2.992-1.962-5.234-2.522l8.841-12.447c1.157-1.609 1.979-2.612 2.467-3.01 0.741-0.56 1.6-0.867 2.576-0.922v-1.003h-11.578l-11.85 16.758z" clip-path="url(#gub-k)"/><path transform="matrix(1.3333,0,0,-1.3333,545.22,312.61)" d="m0 0v-14.968h0.732c2.332 0 4.022 0.732 5.071 2.196 1.048 1.464 1.717 3.625 2.007 6.481h1.03v-19.253h-1.03c-0.218 2.097-0.674 3.814-1.37 5.152s-1.505 2.237-2.427 2.698-2.26 0.692-4.013 0.692v-10.359c0-2.025 0.085-3.263 0.257-3.715s0.493-0.823 0.963-1.112 1.229-0.434 2.278-0.434h2.196c3.435 0 6.187 0.796 8.258 2.387 2.069 1.59 3.556 4.013 4.461 7.267h1.003l-1.655-11.687h-31.781v1.003h1.221c1.066 0 1.925 0.19 2.576 0.569 0.47 0.253 0.831 0.687 1.084 1.302 0.199 0.434 0.299 1.573 0.299 3.417v24.188c0 1.663-0.046 2.685-0.136 3.064-0.181 0.633-0.515 1.121-1.003 1.465-0.688 0.505-1.627 0.759-2.82 0.759h-1.221v1.003h30.778v-10.874h-1.03c-0.524 2.658-1.261 4.565-2.21 5.722-0.95 1.157-2.292 2.007-4.027 2.549-1.013 0.325-2.911 0.488-5.695 0.488z" clip-path="url(#gub-l)"/><path transform="matrix(1.3333,0,0,-1.3333,594.61,312.61)" d="m0 0v-14.968h0.732c2.332 0 4.023 0.732 5.071 2.196 1.049 1.464 1.718 3.625 2.007 6.481h1.03v-19.253h-1.03c-0.217 2.097-0.674 3.814-1.37 5.152s-1.504 2.237-2.426 2.698-2.261 0.692-4.014 0.692v-10.359c0-2.025 0.086-3.263 0.258-3.715s0.492-0.823 0.963-1.112c0.469-0.289 1.228-0.434 2.277-0.434h2.196c3.435 0 6.188 0.796 8.257 2.387 2.07 1.59 3.557 4.013 4.461 7.267h1.004l-1.654-11.687h-31.782v1.003h1.221c1.067 0 1.925 0.19 2.576 0.569 0.47 0.253 0.831 0.687 1.084 1.302 0.2 0.434 0.299 1.573 0.299 3.417v24.188c0 1.663-0.046 2.685-0.136 3.064-0.18 0.633-0.515 1.121-1.003 1.465-0.687 0.505-1.626 0.759-2.82 0.759h-1.221v1.003h30.778v-10.874h-1.03c-0.525 2.658-1.261 4.565-2.21 5.722-0.95 1.157-2.291 2.007-4.027 2.549-1.012 0.325-2.911 0.488-5.694 0.488z" clip-path="url(#gub-m)"/><path transform="matrix(1.3333,0,0,-1.3333,642.26,309.79)" d="m0 0 18.142-22.805v15.809c0 2.205-0.317 3.697-0.95 4.474-0.867 1.048-2.323 1.555-4.365 1.519v1.003h12.148v-1.003c-1.555-0.2-2.599-0.457-3.132-0.773-0.533-0.317-0.949-0.832-1.247-1.546s-0.448-1.939-0.448-3.674v-30.615h-0.921l-24.867 30.615v-23.375c0-2.115 0.484-3.544 1.451-4.284 0.966-0.742 2.075-1.112 3.322-1.112h0.867v-1.004h-13.042v1.004c2.024 0.017 3.434 0.434 4.229 1.247 0.796 0.813 1.194 2.197 1.194 4.149v25.951l-0.786 0.976c-0.778 0.976-1.465 1.618-2.062 1.925-0.596 0.308-1.455 0.479-2.575 0.516v1.003z" clip-path="url(#gub-n)"/><path transform="matrix(1.3333,0,0,-1.3333,411.27,370.83)" d="m0 0h18.981v-1.003h-0.948c-1.429 0-2.409-0.15-2.943-0.448-0.533-0.298-0.913-0.71-1.138-1.234-0.227-0.524-0.34-1.835-0.34-3.932v-18.005c0-3.291 0.249-5.469 0.746-6.535 0.497-1.068 1.315-1.953 2.454-2.658 1.139-0.706 2.576-1.058 4.312-1.058 1.988 0 3.683 0.448 5.084 1.343 1.401 0.894 2.45 2.129 3.146 3.701 0.695 1.573 1.044 4.311 1.044 8.217v14.995c0 1.645-0.172 2.821-0.516 3.526-0.343 0.705-0.777 1.193-1.301 1.464-0.813 0.416-1.962 0.624-3.444 0.624v1.003h12.718v-1.003h-0.759c-1.031 0-1.889-0.208-2.576-0.624s-1.185-1.04-1.492-1.871c-0.235-0.579-0.352-1.618-0.352-3.119v-13.965c0-4.321-0.285-7.439-0.855-9.355-0.569-1.917-1.957-3.679-4.162-5.288-2.206-1.609-5.216-2.414-9.03-2.414-3.182 0-5.64 0.425-7.376 1.275-2.368 1.157-4.04 2.639-5.016 4.447s-1.465 4.239-1.465 7.295v18.005c0 2.116-0.117 3.43-0.352 3.946-0.235 0.515-0.642 0.926-1.22 1.234-0.579 0.307-1.646 0.451-3.2 0.434z" clip-path="url(#gub-o)"/><path transform="matrix(1.3333,0,0,-1.3333,481.45,370.83)" d="m0 0 18.141-22.806v15.81c0 2.205-0.316 3.697-0.949 4.474-0.868 1.048-2.323 1.555-4.366 1.519v1.003h12.149v-1.003c-1.556-0.2-2.6-0.457-3.132-0.773-0.534-0.317-0.949-0.832-1.248-1.546-0.298-0.714-0.447-1.939-0.447-3.674v-30.615h-0.922l-24.866 30.615v-23.375c0-2.115 0.483-3.544 1.451-4.284 0.966-0.742 2.074-1.113 3.321-1.113h0.868v-1.003h-13.043v1.003c2.024 0.018 3.434 0.434 4.23 1.247 0.795 0.814 1.193 2.198 1.193 4.15v25.951l-0.786 0.976c-0.778 0.976-1.465 1.618-2.061 1.925-0.596 0.308-1.455 0.479-2.576 0.516v1.003z" clip-path="url(#gub-p)"/><path transform="matrix(1.3333,0,0,-1.3333,543.6,418.52)" d="m0 0v-1.003h-19.226v1.003h1.221c1.066 0 1.925 0.19 2.576 0.569 0.47 0.253 0.831 0.688 1.084 1.302 0.199 0.434 0.299 1.573 0.299 3.417v24.189c0 1.879-0.1 3.054-0.299 3.524s-0.601 0.882-1.206 1.234c-0.606 0.353-1.424 0.529-2.454 0.529h-1.221v1.004h19.226v-1.004h-1.22c-1.067 0-1.926-0.19-2.576-0.569-0.471-0.254-0.841-0.688-1.112-1.302-0.199-0.434-0.298-1.573-0.298-3.416v-24.189c0-1.881 0.103-3.056 0.311-3.525 0.208-0.471 0.615-0.881 1.221-1.234 0.605-0.352 1.424-0.529 2.454-0.529z" clip-path="url(#gub-q)"/><path transform="matrix(1.3333,0,0,-1.3333,600.98,370.83)" d="m0 0v-1.003c-1.338-0.217-2.531-0.932-3.579-2.143-0.759-0.904-1.89-3.028-3.39-6.372l-12.663-28.093h-0.895l-12.61 29.232c-1.518 3.525-2.535 5.595-3.05 6.21-0.516 0.614-1.487 1.003-2.915 1.166v1.003h17.625v-1.003h-0.595c-1.592 0-2.676-0.2-3.255-0.597-0.416-0.271-0.623-0.669-0.623-1.193 0-0.326 0.072-0.71 0.217-1.153 0.144-0.443 0.632-1.631 1.463-3.566l7.837-18.303 7.268 16.297c0.868 1.97 1.4 3.29 1.6 3.959 0.199 0.668 0.298 1.238 0.298 1.708 0 0.542-0.145 1.021-0.434 1.437s-0.714 0.733-1.275 0.95c-0.777 0.307-1.807 0.461-3.09 0.461v1.003z" clip-path="url(#gub-r)"/><path transform="matrix(1.3333,0,0,-1.3333,623.39,373.65)" d="m0 0v-14.968h0.732c2.332 0 4.023 0.732 5.071 2.196 1.049 1.464 1.718 3.625 2.007 6.481h1.03v-19.253h-1.03c-0.217 2.097-0.674 3.814-1.37 5.152-0.696 1.337-1.504 2.237-2.426 2.698s-2.261 0.692-4.014 0.692v-10.359c0-2.025 0.086-3.263 0.258-3.715s0.492-0.823 0.963-1.112c0.469-0.29 1.228-0.434 2.277-0.434h2.196c3.435 0 6.187 0.796 8.257 2.387 2.07 1.59 3.557 4.012 4.461 7.267h1.004l-1.654-11.687h-31.782v1.003h1.221c1.067 0 1.925 0.19 2.576 0.569 0.47 0.253 0.831 0.687 1.084 1.302 0.2 0.433 0.299 1.573 0.299 3.417v24.188c0 1.663-0.046 2.685-0.136 3.064-0.18 0.633-0.515 1.121-1.003 1.465-0.687 0.505-1.626 0.759-2.82 0.759h-1.221v1.003h30.778v-10.874h-1.029c-0.526 2.658-1.262 4.565-2.211 5.722-0.95 1.157-2.291 2.007-4.028 2.549-1.011 0.325-2.91 0.488-5.693 0.488z" clip-path="url(#gub-t)"/><path transform="matrix(1.3333,0,0,-1.3333,672.27,373.47)" d="m0 0v-16.107h1.545c2.513 0 4.393 0.23 5.641 0.691 1.247 0.461 2.227 1.292 2.942 2.495 0.714 1.202 1.071 2.77 1.071 4.704 0 2.802-0.656 4.872-1.967 6.21-1.31 1.338-3.42 2.007-6.331 2.007zm0-18.033v-10.305c0-1.988 0.122-3.24 0.365-3.755 0.244-0.515 0.674-0.927 1.288-1.234 0.616-0.308 1.763-0.461 3.445-0.461v-1.003h-18.82v1.003c1.7 0 2.852 0.158 3.458 0.475 0.606 0.316 1.031 0.727 1.275 1.234 0.244 0.506 0.365 1.753 0.365 3.741v23.863c0 1.989-0.121 3.241-0.365 3.756s-0.674 0.927-1.288 1.234c-0.616 0.307-1.763 0.461-3.445 0.461v1.003h17.084c4.448 0 7.701-0.307 9.762-0.921 2.061-0.616 3.742-1.749 5.044-3.404 1.302-1.654 1.952-3.593 1.952-5.816 0-2.712-0.976-4.954-2.929-6.725-1.247-1.121-2.992-1.962-5.233-2.522l8.84-12.447c1.157-1.609 1.979-2.613 2.468-3.01 0.741-0.561 1.599-0.867 2.576-0.922v-1.003h-11.579l-11.85 16.758z" clip-path="url(#gub-u)"/><path transform="matrix(1.3333,0,0,-1.3333,740.86,369.71)" d="m0 0 0.299-12.257h-1.112c-0.525 3.073-1.813 5.546-3.864 7.417-2.052 1.871-4.271 2.806-6.657 2.806-1.845 0-3.305-0.492-4.38-1.477-1.075-0.986-1.613-2.12-1.613-3.404 0-0.813 0.189-1.536 0.569-2.169 0.525-0.85 1.365-1.69 2.522-2.522 0.849-0.597 2.811-1.654 5.884-3.172 4.303-2.116 7.205-4.113 8.705-5.993 1.482-1.881 2.223-4.032 2.223-6.454 0-3.074-1.197-5.718-3.593-7.932-2.395-2.215-5.436-3.322-9.125-3.322-1.157 0-2.25 0.118-3.281 0.353-1.03 0.235-2.322 0.677-3.877 1.329-0.868 0.361-1.582 0.542-2.142 0.542-0.471 0-0.967-0.181-1.492-0.542-0.524-0.363-0.949-0.913-1.274-1.655h-1.004v13.884h1.004c0.795-3.905 2.327-6.884 4.596-8.934 2.268-2.053 4.714-3.079 7.336-3.079 2.024 0 3.637 0.551 4.839 1.655 1.203 1.102 1.804 2.385 1.804 3.85 0 0.868-0.23 1.708-0.692 2.522-0.461 0.813-1.161 1.587-2.101 2.318-0.94 0.733-2.603 1.686-4.99 2.861-3.345 1.645-5.748 3.046-7.213 4.204-1.464 1.156-2.59 2.449-3.376 3.877s-1.18 3.001-1.18 4.719c0 2.928 1.076 5.423 3.227 7.484s4.863 3.091 8.136 3.091c1.193 0 2.349-0.145 3.47-0.434 0.85-0.217 1.885-0.619 3.105-1.207 1.221-0.587 2.075-0.88 2.562-0.88 0.471 0 0.841 0.144 1.113 0.433 0.271 0.289 0.524 0.985 0.759 2.088z" clip-path="url(#gub-v)"/><path transform="matrix(1.3333,0,0,-1.3333,774.38,418.52)" d="m0 0v-1.003h-19.227v1.003h1.221c1.067 0 1.926 0.19 2.576 0.569 0.47 0.253 0.831 0.688 1.085 1.302 0.199 0.434 0.298 1.573 0.298 3.417v24.189c0 1.879-0.099 3.054-0.298 3.524s-0.601 0.882-1.207 1.234c-0.605 0.353-1.424 0.529-2.454 0.529h-1.221v1.004h19.227v-1.004h-1.221c-1.066 0-1.925-0.19-2.576-0.569-0.47-0.254-0.841-0.688-1.111-1.302-0.199-0.434-0.299-1.573-0.299-3.416v-24.189c0-1.881 0.104-3.056 0.312-3.525 0.208-0.471 0.615-0.881 1.22-1.234 0.606-0.352 1.424-0.529 2.454-0.529z" clip-path="url(#gub-w)"/><path transform="matrix(1.3333,0,0,-1.3333,822.79,370.83)" d="m0 0v-9.952h-0.977c-0.579 2.296-1.219 3.946-1.924 4.949s-1.673 1.803-2.903 2.399c-0.686 0.326-1.888 0.489-3.606 0.489h-2.738v-28.364c0-1.881 0.103-3.056 0.311-3.526 0.208-0.471 0.614-0.881 1.221-1.233 0.605-0.353 1.432-0.53 2.48-0.53h1.221v-1.003h-19.253v1.003h1.221c1.066 0 1.925 0.191 2.575 0.57 0.471 0.253 0.841 0.687 1.112 1.302 0.198 0.433 0.298 1.573 0.298 3.417v28.364h-2.657c-2.477 0-4.276-0.525-5.397-1.573-1.572-1.464-2.566-3.552-2.982-6.264h-1.03v9.952z" clip-path="url(#gub-x)"/><path transform="matrix(1.3333,0,0,-1.3333,878.11,370.83)" d="m0 0v-1.003c-1.212-0.163-2.143-0.516-2.793-1.058-0.904-0.759-2.332-2.83-4.285-6.21l-7.972-13.314v-8.894c0-1.899 0.099-3.079 0.298-3.54 0.199-0.46 0.592-0.867 1.18-1.219 0.587-0.353 1.369-0.53 2.345-0.53h2.061v-1.003h-20.636v1.003h1.926c1.084 0 1.942 0.191 2.575 0.57 0.471 0.253 0.841 0.687 1.113 1.302 0.198 0.433 0.297 1.573 0.297 3.417v7.375l-8.649 15.755c-1.718 3.109-2.929 4.94-3.634 5.492-0.705 0.55-1.645 0.836-2.82 0.854v1.003h17.626v-1.003h-0.787c-1.067 0-1.813-0.154-2.237-0.461-0.425-0.308-0.637-0.634-0.637-0.976 0-0.651 0.722-2.288 2.17-4.909l6.643-12.175 6.616 11.09c1.645 2.712 2.468 4.511 2.468 5.397 0 0.488-0.235 0.894-0.705 1.22-0.615 0.452-1.745 0.723-3.39 0.814v1.003z" clip-path="url(#gub-y)"/></g></svg>
